<svg width="19" height="12" viewBox="0 0 19 12" fill="none" xmlns="http://www.w3.org/2000/svg">
<path fill-rule="evenodd" clip-rule="evenodd" d="M17.0533 0.666748H16.0133C15.439 0.666748 14.9733 1.11446 14.9733 1.66675V10.3334C14.9733 10.8857 15.439 11.3334 16.0133 11.3334H17.0533C17.6277 11.3334 18.0933 10.8857 18.0933 10.3334V1.66675C18.0933 1.11446 17.6277 0.666748 17.0533 0.666748ZM11.16 3.00008H12.2C12.7744 3.00008 13.24 3.4478 13.24 4.00008V10.3334C13.24 10.8857 12.7744 11.3334 12.2 11.3334H11.16C10.5856 11.3334 10.12 10.8857 10.12 10.3334V4.00008C10.12 3.4478 10.5856 3.00008 11.16 3.00008ZM7.34666 5.33341H6.30666C5.73229 5.33341 5.26666 5.78113 5.26666 6.33341V10.3334C5.26666 10.8857 5.73229 11.3334 6.30666 11.3334H7.34666C7.92104 11.3334 8.38666 10.8857 8.38666 10.3334V6.33341C8.38666 5.78113 7.92104 5.33341 7.34666 5.33341ZM2.49333 7.33341H1.45333C0.878954 7.33341 0.41333 7.78113 0.41333 8.33341V10.3334C0.41333 10.8857 0.878954 11.3334 1.45333 11.3334H2.49333C3.06771 11.3334 3.53333 10.8857 3.53333 10.3334V8.33341C3.53333 7.78113 3.06771 7.33341 2.49333 7.33341Z" fill="white"/>
</svg>
