<svg width="17" height="12" viewBox="0 0 17 12" fill="none" xmlns="http://www.w3.org/2000/svg">
<path fill-rule="evenodd" clip-rule="evenodd" d="M8.2636 2.60789C10.5681 2.60799 12.7845 3.45943 14.4547 4.98623C14.5805 5.1041 14.7815 5.10261 14.9054 4.98289L16.1076 3.81623C16.1703 3.7555 16.2053 3.67325 16.2048 3.58767C16.2043 3.50209 16.1683 3.42024 16.1049 3.36023C11.7212 -0.67932 4.80536 -0.67932 0.421657 3.36023C0.358156 3.4202 0.322126 3.50202 0.32154 3.5876C0.320955 3.67318 0.355862 3.75546 0.418537 3.81623L1.62112 4.98289C1.74491 5.1028 1.9461 5.10428 2.07179 4.98623C3.74219 3.45933 5.95885 2.60789 8.2636 2.60789ZM8.2636 6.40356C9.52979 6.40349 10.7508 6.85602 11.6894 7.67323C11.8163 7.78921 12.0163 7.78669 12.14 7.66756L13.3409 6.50089C13.4041 6.4397 13.4392 6.35668 13.4383 6.27042C13.4374 6.18415 13.4006 6.10184 13.336 6.04189C10.4779 3.48551 6.05173 3.48551 3.1936 6.04189C3.12904 6.10184 3.09221 6.18419 3.09136 6.27049C3.09051 6.35678 3.12572 6.43979 3.1891 6.50089L4.3896 7.66756C4.51335 7.78669 4.71332 7.78921 4.84027 7.67323C5.77822 6.85656 6.99825 6.40406 8.2636 6.40356ZM10.6691 8.95738C10.671 9.04389 10.6356 9.12729 10.5714 9.18789L8.49414 11.2036C8.43324 11.2628 8.35023 11.2961 8.2636 11.2961C8.17698 11.2961 8.09396 11.2628 8.03307 11.2036L5.9555 9.18789C5.89132 9.12724 5.85601 9.04381 5.85791 8.95731C5.85982 8.8708 5.89876 8.78888 5.96555 8.73089C7.29214 7.65201 9.23506 7.65201 10.5617 8.73089C10.6284 8.78893 10.6673 8.87087 10.6691 8.95738Z" fill="white"/>
</svg>
